<svg width="2829" height="2971" viewBox="0 0 2829 2971" fill="none" xmlns="http://www.w3.org/2000/svg">
<g id="Group 1">
<g id="Group 3">
<path id="Rectangle 2" d="M503 802H993.409L1371.27 1286.51L1134.1 1643.29L503 802Z" fill="url(#paint0_radial_19_2)"/>
<path id="Rectangle 1" d="M1659.99 1811.99V2549.63H1183.64L1659.99 1811.99Z" fill="url(#paint1_linear_19_2)"/>
<path id="Rectangle 3" d="M1802.55 802H2325L1183.64 2546.33L1191.68 1729.08L1802.55 802Z" fill="#1D3C6D"/>
</g>
</g>
<path id="Vector" d="M200.632 2359.55L1167.56 2900.09C1333.37 2993.38 1492.2 2994.76 1660.78 2900.09L2627.72 2359.55C2757.29 2286.84 2828.34 2212.75 2828.34 2013.83V946.463C2828.34 753.02 2755.9 683.052 2637.48 615.824L1667.75 72.542C1494.99 -24.8673 1329.19 -23.4917 1160.6 72.542L190.877 615.824C72.4474 683.052 0 753.02 0 946.463V2013.83C0 2212.75 71.0563 2286.84 200.632 2359.55ZM331.598 2167.48C252.184 2123.58 225.712 2081.05 225.712 2006.96V956.063C225.712 887.47 253.575 847.684 323.24 807.897L1259.52 279.7C1365.41 220.708 1460.15 217.962 1568.83 279.7L2505.11 807.897C2574.79 847.684 2602.64 887.47 2602.64 956.063V2006.96C2602.64 2081.05 2576.16 2123.58 2496.75 2167.48L1568.83 2687.44C1457.36 2749.18 1366.8 2747.81 1259.52 2687.44L331.598 2167.48Z" fill="url(#paint2_linear_19_2)"/>
<defs>
<radialGradient id="paint0_radial_19_2" cx="0" cy="0" r="1" gradientUnits="userSpaceOnUse" gradientTransform="translate(824.58 986.996) rotate(64.5387) scale(785.434 840.684)">
<stop offset="0.3" stop-color="#CB9C4E"/>
<stop offset="0.915" stop-color="#654E27"/>
</radialGradient>
<linearGradient id="paint1_linear_19_2" x1="1712.03" y1="2297.86" x2="1502.33" y2="1930.46" gradientUnits="userSpaceOnUse">
<stop offset="0.315" stop-color="#CB9C4E"/>
<stop offset="0.975" stop-color="#654E27"/>
</linearGradient>
<linearGradient id="paint2_linear_19_2" x1="2917" y1="1407.5" x2="4.1079e-05" y2="1418" gradientUnits="userSpaceOnUse">
<stop offset="0.299459" stop-color="#1D3C6D"/>
<stop offset="0.674351" stop-color="#CB9C4E"/>
</linearGradient>
</defs>
</svg>
